<!-- SVG Icon for Terra Time Calculator - 48x48 -->
<svg width="48" height="48" viewBox="0 0 128 128" xmlns="http://www.w3.org/2000/svg">
  <!-- Background circle -->
  <circle cx="64" cy="64" r="60" fill="#4CAF50" stroke="#2E7D32" stroke-width="4"/>
  
  <!-- Clock face -->
  <circle cx="64" cy="64" r="45" fill="white" stroke="#666" stroke-width="2"/>
  
  <!-- Clock numbers -->
  <text x="64" y="25" text-anchor="middle" font-family="Arial" font-size="12" font-weight="bold" fill="#333">12</text>
  <text x="100" y="70" text-anchor="middle" font-family="Arial" font-size="12" font-weight="bold" fill="#333">3</text>
  <text x="64" y="108" text-anchor="middle" font-family="Arial" font-size="12" font-weight="bold" fill="#333">6</text>
  <text x="28" y="70" text-anchor="middle" font-family="Arial" font-size="12" font-weight="bold" fill="#333">9</text>
  
  <!-- Clock hands -->
  <!-- Hour hand pointing to 8 -->
  <line x1="64" y1="64" x2="50" y2="85" stroke="#333" stroke-width="4" stroke-linecap="round"/>
  <!-- Minute hand pointing to 12 -->
  <line x1="64" y1="64" x2="64" y2="35" stroke="#333" stroke-width="3" stroke-linecap="round"/>
  
  <!-- Center dot -->
  <circle cx="64" cy="64" r="4" fill="#333"/>
  
  <!-- Calculator icon overlay -->
  <rect x="85" y="85" width="30" height="30" rx="4" fill="#2196F3" stroke="white" stroke-width="2"/>
  <rect x="89" y="89" width="6" height="4" fill="white"/>
  <rect x="97" y="89" width="6" height="4" fill="white"/>
  <rect x="105" y="89" width="6" height="4" fill="white"/>
  <rect x="89" y="95" width="6" height="4" fill="white"/>
  <rect x="97" y="95" width="6" height="4" fill="white"/>
  <rect x="105" y="95" width="6" height="4" fill="white"/>
  <rect x="89" y="101" width="22" height="4" fill="white"/>
  <rect x="89" y="107" width="22" height="4" fill="white"/>
</svg>
